<svg xmlns="http://www.w3.org/2000/svg" version="1.1" viewbox='0 0 676 601' style="shape-rendering:geometricPrecision; text-rendering:geometricPrecision; image-rendering:optimizeQuality; fill-rule:evenodd; clip-rule:evenodd" xmlns:xlink="http://www.w3.org/1999/xlink">
<g><path style="opacity:1" fill="#070707" d="M 636.5,343.5 C 638.176,342.817 638.843,341.483 638.5,339.5C 642.262,309.583 643.096,279.583 641,249.5C 641.315,226.78 634.649,206.447 621,188.5C 614.054,179.386 606.221,171.053 597.5,163.5C 590.338,170.083 582.004,174.583 572.5,177C 544.4,179.433 516.4,178.433 488.5,174C 458.007,168.793 427.674,162.793 397.5,156C 315.498,144.936 233.164,140.936 150.5,144C 148.392,143.64 146.392,142.973 144.5,142C 148.174,137.993 152.174,134.326 156.5,131C 204.734,97.4864 255.067,67.1531 307.5,40C 348.154,20.6281 390.987,10.1281 436,8.5C 488.525,8.88263 533.191,27.5493 570,64.5C 590.899,88.8357 602.232,117.169 604,149.5C 628.545,169.038 646.545,193.371 658,222.5C 662.016,241.972 663.35,261.639 662,281.5C 660.806,303.716 657.973,325.716 653.5,347.5C 667.881,361.48 673.381,378.48 670,398.5C 667.779,404.61 664.779,410.277 661,415.5C 655.923,419.624 650.423,423.124 644.5,426C 643.789,427.255 642.956,428.421 642,429.5C 640.942,434.935 640.442,440.435 640.5,446C 644.477,473.782 641.977,500.949 633,527.5C 623.5,551.667 606.667,568.5 582.5,578C 525.427,599.492 468.76,598.492 412.5,575C 385.719,559.992 369.885,537.159 365,506.5C 363.146,494.574 362.146,482.574 362,470.5C 356.436,478.737 349.103,484.737 340,488.5C 333.794,486.154 330.461,481.487 330,474.5C 327.278,433.989 339.611,398.989 367,369.5C 373.558,351.051 382.224,333.718 393,317.5C 401.546,306.651 412.046,298.318 424.5,292.5C 419.805,287.727 414.972,283.061 410,278.5C 402.54,268.796 398.206,257.796 397,245.5C 395.511,225.112 399.344,205.779 408.5,187.5C 409.002,186.479 409.668,186.312 410.5,187C 440.98,208.517 456.147,238.017 456,275.5C 484.119,264.453 512.452,263.786 541,273.5C 540.428,262.54 540.428,251.54 541,240.5C 544.637,216.729 556.471,198.396 576.5,185.5C 592.497,205.82 598.33,228.82 594,254.5C 591.476,267.04 586.642,278.54 579.5,289C 598.741,303.099 612.075,321.599 619.5,344.5C 620.667,344.833 621.833,345.167 623,345.5C 627.447,344.429 631.947,343.763 636.5,343.5 Z M 179.5,134.5 C 177.5,133.833 175.5,133.167 173.5,132.5C 219.772,101.691 268.772,75.5241 320.5,54C 377.631,29.9057 436.298,25.239 496.5,40C 540.276,55.7789 570.943,85.1122 588.5,128C 587.946,130.824 587.446,133.657 587,136.5C 582.753,133.292 578.253,130.458 573.5,128C 501.842,103.209 428.509,96.2088 353.5,107C 314.451,112.743 275.784,120.41 237.5,130C 218.264,132.728 198.93,134.228 179.5,134.5 Z M 280.5,133.5 C 280.167,132.833 279.833,132.167 279.5,131.5C 325.871,123.204 372.537,117.037 419.5,113C 476.886,109.84 531.552,120.34 583.5,144.5C 582.238,150.931 578.571,155.431 572.5,158C 560.806,161.716 548.806,163.549 536.5,163.5C 522.784,162.901 509.118,161.735 495.5,160C 423.839,151.024 352.172,142.191 280.5,133.5 Z M 556.5,306.5 C 579.806,306.299 589.64,317.632 586,340.5C 577.553,356.411 565.053,360.577 548.5,353C 537.269,344.008 534.435,332.841 540,319.5C 543.939,313.048 549.439,308.714 556.5,306.5 Z M 435.5,310.5 C 452.686,310.243 462.353,318.576 464.5,335.5C 462.917,350.917 454.417,359.583 439,361.5C 420.018,358.549 412.018,347.549 415,328.5C 418.633,318.692 425.466,312.692 435.5,310.5 Z M 629.5,351.5 C 636.618,350.895 643.452,351.562 650,353.5C 650.747,362.208 648.747,370.208 644,377.5C 637.833,383.279 633.5,381.946 631,373.5C 629.652,366.239 629.152,358.906 629.5,351.5 Z M 494.5,396.5 C 523.242,394.485 550.576,399.651 576.5,412C 616.407,436.695 630.24,471.861 618,517.5C 608.033,541.134 591.533,558.634 568.5,570C 527.597,588.074 486.264,589.074 444.5,573C 402.991,553.15 384.491,520.317 389,474.5C 397.793,443.033 417.293,420.867 447.5,408C 462.722,401.777 478.389,397.944 494.5,396.5 Z"/></g>
<g><path style="opacity:1" fill="#808080" d="M 279.5,131.5 C 279.833,132.167 280.167,132.833 280.5,133.5C 278.576,133.289 278.243,132.623 279.5,131.5 Z"/></g>
<g><path style="opacity:1" fill="#969696" d="M 173.5,132.5 C 175.5,133.167 177.5,133.833 179.5,134.5C 177.076,134.808 174.743,134.474 172.5,133.5C 172.624,132.893 172.957,132.56 173.5,132.5 Z"/></g>
<g><path style="opacity:1" fill="#5f5f5f" d="M 267.5,148.5 C 266.539,150.265 266.205,152.265 266.5,154.5C 265.366,152.034 265.199,149.367 266,146.5C 266.717,147.044 267.217,147.711 267.5,148.5 Z"/></g>
<g><path style="opacity:1" fill="#0e0e0e" d="M 267.5,148.5 C 276.338,159.173 282.838,171.173 287,184.5C 289.531,193.255 288.531,201.589 284,209.5C 275.553,217.639 266.386,218.472 256.5,212C 252.734,206.416 251.568,200.249 253,193.5C 255.558,184.382 259.225,175.715 264,167.5C 265.158,163.225 265.992,158.891 266.5,154.5C 266.205,152.265 266.539,150.265 267.5,148.5 Z M 279.5,184.5 C 281.343,186.159 282.343,188.325 282.5,191C 281.944,195.23 281.11,199.397 280,203.5C 277.647,208.426 273.814,210.26 268.5,209C 271.884,207.068 274.718,204.568 277,201.5C 278.062,195.833 278.895,190.166 279.5,184.5 Z"/></g>
<g><path style="opacity:1" fill="#616161" d="M 157.5,159.5 C 156.833,159.5 156.5,159.833 156.5,160.5C 155.427,159.749 155.26,158.749 156,157.5C 156.717,158.044 157.217,158.711 157.5,159.5 Z"/></g>
<g><path style="opacity:1" fill="#080808" d="M 157.5,159.5 C 174.146,179.104 186.979,201.104 196,225.5C 201.163,240.772 201.497,256.105 197,271.5C 186.695,291.886 170.529,298.386 148.5,291C 136.338,285.527 130.671,276.027 131.5,262.5C 132.924,242.062 139.424,223.395 151,206.5C 157.386,191.758 159.219,176.425 156.5,160.5C 156.5,159.833 156.833,159.5 157.5,159.5 Z M 183.5,233.5 C 185.911,233.137 187.411,234.137 188,236.5C 189.324,247.743 188.324,258.743 185,269.5C 180.68,277.825 173.847,281.992 164.5,282C 162.789,280.867 162.289,279.367 163,277.5C 175.914,273.538 182.081,264.704 181.5,251C 179.885,244.818 180.552,238.985 183.5,233.5 Z"/></g>
<g><path style="opacity:1" fill="#101010" d="M 562.5,314.5 C 572.482,313.982 576.649,318.648 575,328.5C 569.092,336.369 563.092,336.369 557,328.5C 555.268,322.314 557.101,317.647 562.5,314.5 Z"/></g>
<g><path style="opacity:1" fill="#121212" d="M 435.5,317.5 C 444.971,318.465 448.471,323.465 446,332.5C 439.508,339.425 433.508,339.092 428,331.5C 426.632,324.559 429.132,319.893 435.5,317.5 Z"/></g>
<g><path style="opacity:1" fill="#828282" d="M 638.5,339.5 C 638.843,341.483 638.176,342.817 636.5,343.5C 636.989,342.005 637.655,340.671 638.5,339.5 Z"/></g>
<g><path style="opacity:1" fill="#080808" d="M 185.5,527.5 C 185.44,526.957 185.107,526.624 184.5,526.5C 183.511,530.107 183.177,533.774 183.5,537.5C 182.06,564.773 168.06,581.607 141.5,588C 109.254,597.426 78.2537,594.426 48.5,579C 32.9563,565.061 25.7896,547.561 27,526.5C 22.1544,532.283 16.9877,532.783 11.5,528C 6.52952,510.8 9.36286,494.966 20,480.5C 24.4346,475.309 29.1013,470.309 34,465.5C 37.553,454.841 41.8863,444.508 47,434.5C 49.7039,430.42 52.8706,426.753 56.5,423.5C 48.4894,410.614 45.656,396.614 48,381.5C 48.7079,374.868 50.8746,368.868 54.5,363.5C 71.463,375.755 80.2964,392.422 81,413.5C 96.0025,410.858 111.003,410.858 126,413.5C 123.759,392.012 131.259,375.012 148.5,362.5C 156.524,377.645 159.024,393.645 156,410.5C 154.971,414.889 153.138,418.889 150.5,422.5C 165.357,432.867 173.524,447.2 175,465.5C 181.049,472.548 186.716,479.881 192,487.5C 199.05,499.747 201.05,512.747 198,526.5C 196.967,529.033 195.133,530.699 192.5,531.5C 189.976,530.408 187.643,529.074 185.5,527.5 Z M 136.5,431.5 C 151.691,431.849 156.857,439.183 152,453.5C 146.442,459.924 139.942,461.091 132.5,457C 125.324,450.258 124.657,442.925 130.5,435C 132.432,433.541 134.432,432.375 136.5,431.5 Z M 67.5,433.5 C 82.7557,434.59 87.5891,442.257 82,456.5C 74.045,463.395 66.3783,463.062 59,455.5C 54.8879,445.402 57.7212,438.068 67.5,433.5 Z M 96.5,482.5 C 118.225,479.837 138.225,484.337 156.5,496C 174.744,513.219 178.911,533.386 169,556.5C 157.275,574.126 140.775,584.293 119.5,587C 95.0283,590.678 73.5283,584.512 55,568.5C 36.4235,544.9 37.2569,522.067 57.5,500C 68.952,490.577 81.952,484.744 96.5,482.5 Z"/></g>
<g><path style="opacity:1" fill="#0c0c0c" d="M 502.5,415.5 C 516.801,416.94 527.635,423.94 535,436.5C 536.732,446.583 532.566,450.083 522.5,447C 518.553,444.72 514.887,442.053 511.5,439C 509.086,437.115 506.419,436.448 503.5,437C 500.048,441.272 496.381,445.272 492.5,449C 481.391,450.563 477.558,446.063 481,435.5C 486.454,426.875 493.621,420.209 502.5,415.5 Z"/></g>
<g><path style="opacity:1" fill="#171717" d="M 139.5,435.5 C 144.406,434.306 147.406,436.139 148.5,441C 145.891,447.242 142.057,448.075 137,443.5C 136.388,440.389 137.221,437.723 139.5,435.5 Z"/></g>
<g><path style="opacity:1" fill="#171717" d="M 66.5,437.5 C 72.8302,436.666 75.6635,439.333 75,445.5C 69.9691,450.921 66.1358,450.087 63.5,443C 64.2228,440.982 65.2228,439.148 66.5,437.5 Z"/></g>
<g><path style="opacity:1" fill="#0f0f0f" d="M 575.5,442.5 C 585.983,443.326 593.816,448.326 599,457.5C 600.141,465.008 596.974,467.508 589.5,465C 585.735,462.369 581.902,459.869 578,457.5C 574.512,459.654 571.679,462.488 569.5,466C 560.246,467.266 557.413,463.766 561,455.5C 565.164,450.348 569.998,446.015 575.5,442.5 Z"/></g>
<g><path style="opacity:1" fill="#0d0d0d" d="M 315.5,545.5 C 315.44,544.957 315.107,544.624 314.5,544.5C 313.52,547.086 313.187,549.753 313.5,552.5C 311.008,570.492 300.674,580.658 282.5,583C 264.639,586.721 247.639,584.388 231.5,576C 222.992,568.816 218.992,559.649 219.5,548.5C 219.762,547.022 219.429,545.689 218.5,544.5C 217.893,544.624 217.56,544.957 217.5,545.5C 214.78,547.975 212.113,547.975 209.5,545.5C 205.747,530.594 209.913,518.261 222,508.5C 224.862,502.248 227.528,495.915 230,489.5C 231.977,486.688 234.144,484.022 236.5,481.5C 229.116,469.567 228.783,457.567 235.5,445.5C 245.921,452.666 251.421,462.666 252,475.5C 260.47,474.178 268.97,474.178 277.5,475.5C 277.497,462.842 282.331,452.508 292,444.5C 299.449,456.212 300.283,468.379 294.5,481C 303.105,487.706 307.939,496.54 309,507.5C 312,511.167 315,514.833 318,518.5C 323.341,526.943 324.675,535.943 322,545.5C 319.882,547.707 317.716,547.707 315.5,545.5 Z M 285.5,486.5 C 294.702,487.232 297.535,491.899 294,500.5C 289.627,504.483 285.294,504.483 281,500.5C 277.998,494.2 279.498,489.533 285.5,486.5 Z M 241.5,488.5 C 250.158,487.327 253.992,490.994 253,499.5C 248.569,505.84 243.569,506.174 238,500.5C 236.179,495.779 237.346,491.779 241.5,488.5 Z M 261.5,517.5 C 274.543,516.17 286.543,519.003 297.5,526C 308.192,536.935 310.359,549.435 304,563.5C 294.502,575.497 282.002,581.497 266.5,581.5C 256.232,581.022 246.898,577.855 238.5,572C 227.404,560.486 225.571,547.653 233,533.5C 240.544,524.646 250.044,519.312 261.5,517.5 Z"/></g>
<g><path style="opacity:1" fill="#0c0c0c" d="M 435.5,451.5 C 440.08,451.113 444.414,451.947 448.5,454C 454.593,458.089 460.093,462.922 465,468.5C 468.818,473.841 469.318,479.341 466.5,485C 462.5,487 458.5,487 454.5,485C 450.833,482 447.167,479 443.5,476C 440.5,474 437.5,474 434.5,476C 432.22,479.947 429.553,483.613 426.5,487C 411.478,487.457 408.311,481.291 417,468.5C 422.111,461.55 428.278,455.883 435.5,451.5 Z"/></g>
<g><path style="opacity:1" fill="#212121" d="M 287.5,488.5 C 291.487,488.652 292.987,490.652 292,494.5C 288.444,497.475 286.277,496.642 285.5,492C 285.862,490.566 286.528,489.399 287.5,488.5 Z"/></g>
<g><path style="opacity:1" fill="#232323" d="M 244.5,489.5 C 249.692,492.345 249.692,495.012 244.5,497.5C 242.261,497.426 241.261,496.259 241.5,494C 241.557,491.791 242.557,490.291 244.5,489.5 Z"/></g>
<g><path style="opacity:1" fill="#121212" d="M 106.5,492.5 C 113.809,493.076 119.643,496.409 124,502.5C 127.225,508.859 125.392,511.692 118.5,511C 115.032,509.03 111.699,506.864 108.5,504.5C 105.976,506.19 103.976,508.357 102.5,511C 99.8333,511.667 97.1667,511.667 94.5,511C 93.4086,508.936 93.2419,506.769 94,504.5C 97.4272,499.57 101.594,495.57 106.5,492.5 Z"/></g>
<g><path style="opacity:1" fill="#151515" d="M 147.5,507.5 C 155.551,508.387 160.051,512.72 161,520.5C 156.564,521.386 152.73,520.052 149.5,516.5C 147.684,517.815 146.017,519.315 144.5,521C 138.549,522.103 137.049,519.936 140,514.5C 142.396,511.933 144.896,509.6 147.5,507.5 Z"/></g>
<g><path style="opacity:1" fill="#121212" d="M 68.5,512.5 C 78.495,513.496 84.8284,518.829 87.5,528.5C 87.4302,529.772 87.0968,530.938 86.5,532C 84.1667,532.667 81.8333,532.667 79.5,532C 76.8963,529.714 74.063,527.881 71,526.5C 68.0874,527.74 65.9208,529.907 64.5,533C 55.2411,534.185 53.0744,530.685 58,522.5C 61.3955,518.935 64.8955,515.602 68.5,512.5 Z"/></g>
<g><path style="opacity:1" fill="#1a1a1a" d="M 265.5,523.5 C 270.596,523.4 274.763,525.4 278,529.5C 278.667,531.167 278.667,532.833 278,534.5C 277.439,535.022 276.772,535.355 276,535.5C 273.384,534.385 270.884,533.051 268.5,531.5C 267.019,532.48 265.685,533.647 264.5,535C 261.741,535.977 259.741,535.144 258.5,532.5C 260.475,529.195 262.809,526.195 265.5,523.5 Z"/></g>
<g><path style="opacity:1" fill="#797979" d="M 185.5,527.5 C 184.833,530.833 184.167,534.167 183.5,537.5C 183.177,533.774 183.511,530.107 184.5,526.5C 185.107,526.624 185.44,526.957 185.5,527.5 Z"/></g>
<g><path style="opacity:1" fill="#232323" d="M 291.5,532.5 C 297.026,532.629 299.86,535.296 300,540.5C 297.502,541.121 295.168,540.455 293,538.5C 290.14,542.484 287.806,542.484 286,538.5C 287.36,535.977 289.193,533.977 291.5,532.5 Z"/></g>
<g><path style="opacity:1" fill="#171717" d="M 243.5,535.5 C 251.815,535.962 255.481,540.129 254.5,548C 253.5,548.667 252.5,548.667 251.5,548C 249.557,546.445 247.39,545.278 245,544.5C 243.581,546.422 241.747,547.755 239.5,548.5C 237.971,548.471 236.804,547.804 236,546.5C 236.984,541.884 239.484,538.217 243.5,535.5 Z"/></g>
<g><path style="opacity:1" fill="#9f9f9f" d="M 217.5,545.5 C 217.56,544.957 217.893,544.624 218.5,544.5C 219.429,545.689 219.762,547.022 219.5,548.5C 218.833,547.5 218.167,546.5 217.5,545.5 Z"/></g>
<g><path style="opacity:1" fill="#757575" d="M 315.5,545.5 C 314.833,547.833 314.167,550.167 313.5,552.5C 313.187,549.753 313.52,547.086 314.5,544.5C 315.107,544.624 315.44,544.957 315.5,545.5 Z"/></g>
</svg>
