<?xml version="1.0" encoding="UTF-8"?>
<!DOCTYPE svg PUBLIC "-//W3C//DTD SVG 1.1//EN" "http://www.w3.org/Graphics/SVG/1.1/DTD/svg11.dtd">
<svg xmlns="http://www.w3.org/2000/svg" version="1.1" viewbox="0 0 1080 953"  style="shape-rendering:geometricPrecision; text-rendering:geometricPrecision; image-rendering:optimizeQuality; fill-rule:evenodd; clip-rule:evenodd" xmlns:xlink="http://www.w3.org/1999/xlink">
<g><path style="opacity:1" fill="#070707" d="M 301.5,765.5 C 299.305,762.565 296.305,760.898 292.5,760.5C 299.861,750.613 305.528,739.78 309.5,728C 308.874,727.25 308.374,726.416 308,725.5C 292.336,718.752 276.836,711.585 261.5,704C 250.607,697.395 239.941,690.562 229.5,683.5C 216.01,682.504 202.344,682.171 188.5,682.5C 188.263,683.791 188.596,684.791 189.5,685.5C 191.306,690.446 193.639,695.112 196.5,699.5C 195.761,699.369 195.094,699.536 194.5,700C 197.159,704.996 195.992,706.496 191,704.5C 190.283,705.044 189.783,705.711 189.5,706.5C 168.61,680.313 159.777,650.313 163,616.5C 160.412,612.326 158.079,607.993 156,603.5C 154.155,600.817 151.655,599.15 148.5,598.5C 133.589,602.916 118.589,606.916 103.5,610.5C 101.81,610.144 100.81,609.144 100.5,607.5C 114.981,599.681 130.148,593.347 146,588.5C 146.309,587.234 146.809,586.067 147.5,585C 145.652,578.94 143.652,572.94 141.5,567C 129.846,565.533 118.18,563.866 106.5,562C 100.459,560.71 94.7923,558.544 89.5,555.5C 89.7093,554.914 90.0426,554.414 90.5,554C 102.833,553.333 115.167,553.333 127.5,554C 131.721,554.578 135.888,555.411 140,556.5C 140.5,556.167 141,555.833 141.5,555.5C 144.818,544.562 147.985,533.562 151,522.5C 151.667,520.167 151.667,517.833 151,515.5C 144.667,510.5 139,504.833 134,498.5C 131.19,495.536 129.024,492.202 127.5,488.5C 127.541,486.255 128.375,485.588 130,486.5C 130.708,485.619 131.542,484.953 132.5,484.5C 141.42,490.584 149.254,497.918 156,506.5C 163.167,496.167 170.333,485.833 177.5,475.5C 161.825,442.307 150.658,407.64 144,371.5C 141.762,359.934 140.596,348.268 140.5,336.5C 140.175,328.981 140.508,321.648 141.5,314.5C 154.791,324.619 167.958,334.952 181,345.5C 189.997,312.491 203.997,281.825 223,253.5C 229.043,245.391 235.543,237.724 242.5,230.5C 243.552,230.649 244.552,230.483 245.5,230C 246.333,228.5 247.5,227.333 249,226.5C 249.483,225.552 249.649,224.552 249.5,223.5C 283.73,191.718 324.063,171.552 370.5,163C 440.114,151.524 510.114,147.857 580.5,152C 656.884,156.258 728.217,177.258 794.5,215C 826.606,234.001 849.773,260.834 864,295.5C 876.851,326.389 885.851,358.389 891,391.5C 893.67,410.854 896.336,430.187 899,449.5C 926.263,450.519 951.097,458.685 973.5,474C 997.398,493.423 1003.9,517.589 993,546.5C 984.028,563.475 971.528,577.308 955.5,588C 944.768,595.034 933.435,601.034 921.5,606C 919.951,607.214 918.785,608.714 918,610.5C 920.464,636.916 921.964,663.416 922.5,690C 923.524,722.645 919.024,754.478 909,785.5C 904.443,798.955 897.11,810.622 887,820.5C 882.121,813.984 875.621,811.818 867.5,814C 864.596,815.982 862.262,818.482 860.5,821.5C 858.008,818.837 855.674,816.004 853.5,813C 851.541,812.069 849.541,811.236 847.5,810.5C 843.539,813.154 840.039,812.82 837,809.5C 837,805.5 837,801.5 837,797.5C 826.672,772.512 818.672,746.845 813,720.5C 812.333,724.5 811.667,728.5 811,732.5C 804.966,740.106 802.466,748.773 803.5,758.5C 797.9,757.131 792.233,756.298 786.5,756C 782.987,758.896 779.821,762.062 777,765.5C 773.062,763.727 769.895,761.06 767.5,757.5C 765.541,761.293 762.708,764.293 759,766.5C 757.775,766.138 756.609,765.638 755.5,765C 752.324,760.994 748.991,757.16 745.5,753.5C 741.969,761.02 737.302,767.686 731.5,773.5C 736.26,785.923 735.427,797.923 729,809.5C 722.997,817.085 715.164,820.752 705.5,820.5C 705.756,818.208 705.423,816.041 704.5,814C 699.856,814.291 695.189,814.291 690.5,814C 688.041,811.554 685.708,809.054 683.5,806.5C 681.292,809.054 678.959,811.554 676.5,814C 675.167,814.667 673.833,814.667 672.5,814C 665.634,801.145 654.968,796.145 640.5,799C 636.841,798.963 633.674,800.129 631,802.5C 628.043,800.923 625.376,801.256 623,803.5C 624.372,820.437 617.205,831.937 601.5,838C 599,841.833 595.833,845 592,847.5C 588.846,845.259 585.68,842.925 582.5,840.5C 580.016,842.483 577.683,844.65 575.5,847C 574.271,847.781 572.938,848.281 571.5,848.5C 567.702,846.202 564.369,843.368 561.5,840C 557.071,839.361 552.904,840.195 549,842.5C 548.5,842.167 548,841.833 547.5,841.5C 552.796,827.181 550.963,813.848 542,801.5C 535.667,795.5 529.333,789.5 523,783.5C 520.056,779.947 517.89,775.947 516.5,771.5C 515.5,771.167 514.5,770.833 513.5,770.5C 488.326,777.216 462.993,778.049 437.5,773C 415.611,767.222 397.944,755.222 384.5,737C 363.341,738.273 342.675,735.773 322.5,729.5C 321.558,729.608 320.725,729.941 320,730.5C 317.862,744.426 311.695,756.093 301.5,765.5 Z M 382.5,196.5 C 407.272,194.224 426.605,203.224 440.5,223.5C 440,223.833 439.5,224.167 439,224.5C 424.442,222.126 409.775,221.126 395,221.5C 374.743,221.7 354.576,222.867 334.5,225C 347.039,209.568 363.039,200.068 382.5,196.5 Z M 636.5,640.5 C 639.043,635.763 641.877,631.097 645,626.5C 646.167,622.333 644.667,620.833 640.5,622C 637.123,625.931 634.123,630.098 631.5,634.5C 625.817,643.372 621.984,653.039 620,663.5C 619.048,675.524 618.048,687.524 617,699.5C 595.819,725.683 568.319,740.85 534.5,745C 523.728,749.552 513.394,754.886 503.5,761C 494.576,764.057 485.576,765.223 476.5,764.5C 476.717,752.736 471.383,744.903 460.5,741C 451.353,737.79 442.353,738.457 433.5,743C 429.904,746.735 428.571,751.235 429.5,756.5C 415.629,753.327 405.129,745.66 398,733.5C 395.495,728.031 396.328,723.197 400.5,719C 406.5,717.333 412.5,715.667 418.5,714C 421.606,710.368 423.773,706.201 425,701.5C 427.333,700.123 429.833,699.123 432.5,698.5C 437.977,699.827 443.143,701.827 448,704.5C 452.548,702.226 457.215,700.226 462,698.5C 470.461,701.628 476.295,707.461 479.5,716C 480.793,716.49 482.127,716.657 483.5,716.5C 483.244,714.208 483.577,712.041 484.5,710C 492.861,709.995 500.861,708.328 508.5,705C 514.116,699.914 514.949,694.081 511,687.5C 498.596,674.358 483.263,668.025 465,668.5C 457.472,669.064 449.972,669.564 442.5,670C 444.115,665.935 446.115,662.102 448.5,658.5C 465.59,633.701 489.423,621.368 520,621.5C 526.15,622.177 532.317,622.677 538.5,623C 561.801,627.161 585.134,630.994 608.5,634.5C 611.739,608.83 601.073,591.664 576.5,583C 575.465,581.493 575.632,579.993 577,578.5C 582.893,571.284 588.727,564.118 594.5,557C 613.632,557.303 632.632,555.97 651.5,553C 655.211,552.156 658.877,551.156 662.5,550C 662.957,549.586 663.291,549.086 663.5,548.5C 662.088,547.194 660.421,546.36 658.5,546C 653.547,545.005 648.547,544.338 643.5,544C 628.147,543.737 612.814,543.07 597.5,542C 596.208,536.844 596.375,531.677 598,526.5C 598.833,525 600,523.833 601.5,523C 618.18,519.081 634.514,514.081 650.5,508C 656.705,505.121 662.372,501.454 667.5,497C 644.212,497.857 621.546,502.191 599.5,510C 597.167,510.667 594.833,510.667 592.5,510C 589.375,504.246 585.875,498.746 582,493.5C 580.813,491.956 580.48,490.289 581,488.5C 590.091,483.039 598.924,477.206 607.5,471C 621.574,459.156 619.574,456.49 601.5,463C 590.919,467.872 580.752,473.372 571,479.5C 566.677,476.01 562.51,472.343 558.5,468.5C 555.653,466.486 553.32,463.986 551.5,461C 567.615,428.379 577.115,393.879 580,357.5C 581.332,345.852 581.999,334.186 582,322.5C 576.177,327.078 570.177,331.412 564,335.5C 563.333,318.167 563.333,300.833 564,283.5C 589.206,262.633 617.373,246.466 648.5,235C 685.337,222.988 722.67,220.988 760.5,229C 799.434,238.946 827.934,261.78 846,297.5C 861.585,329.513 870.419,363.179 872.5,398.5C 871.333,398.833 870.167,399.167 869,399.5C 782.685,387.524 701.185,402.024 624.5,443C 624.043,443.414 623.709,443.914 623.5,444.5C 633.44,455.777 632.774,466.277 621.5,476C 614.156,481.676 606.156,486.343 597.5,490C 595.83,494.162 597.163,496.662 601.5,497.5C 621.004,492.416 640.504,487.416 660,482.5C 663.952,482.78 667.785,483.613 671.5,485C 676.011,488.181 680.511,491.348 685,494.5C 730.19,475.439 777.356,466.106 826.5,466.5C 842.176,467.16 857.843,467.994 873.5,469C 876.956,469.18 880.289,469.847 883.5,471C 893.366,520.393 900.532,570.226 905,620.5C 906.117,630.817 906.45,641.15 906,651.5C 904.262,652.127 902.429,652.46 900.5,652.5C 890.179,651.795 879.845,651.295 869.5,651C 867.324,650.837 865.491,650.004 864,648.5C 862.278,642.528 862.278,636.528 864,630.5C 865.715,624.736 867.715,619.07 870,613.5C 871.935,606.507 871.935,599.507 870,592.5C 867.863,586.421 865.529,580.421 863,574.5C 862.248,571.106 862.415,567.773 863.5,564.5C 863.177,559.691 861.01,556.024 857,553.5C 853.939,568.234 849.105,582.401 842.5,596C 847.213,595.317 851.546,593.484 855.5,590.5C 857.636,591.472 858.803,593.139 859,595.5C 859.554,598.658 860.054,601.825 860.5,605C 858.42,616.821 856.42,628.654 854.5,640.5C 854.778,647.833 856.444,654.833 859.5,661.5C 857.254,673.177 851.587,682.677 842.5,690C 834.241,694.357 825.908,694.357 817.5,690C 815.777,689.225 814.777,687.892 814.5,686C 816.766,679.338 818.266,672.504 819,665.5C 819.333,653.833 819.667,642.167 820,630.5C 821.97,627.032 824.136,623.699 826.5,620.5C 822.701,618.907 818.701,618.074 814.5,618C 817.739,613.348 819.739,608.182 820.5,602.5C 820.283,599.512 819.283,596.845 817.5,594.5C 815.467,599.403 812.8,603.903 809.5,608C 807.026,610.099 804.359,610.599 801.5,609.5C 800.062,609.719 798.729,610.219 797.5,611C 787.733,623.056 775.399,631.389 760.5,636C 757.15,636.93 754.317,636.097 752,633.5C 751.237,630.53 749.737,628.03 747.5,626C 745.08,625.085 743.747,625.918 743.5,628.5C 759.094,677.763 752.594,723.763 724,766.5C 725.316,774.648 724.649,782.648 722,790.5C 721.481,791.516 720.647,792.182 719.5,792.5C 712.366,788.097 705.033,783.93 697.5,780C 685.533,774.065 673.2,773.065 660.5,777C 656.285,780.722 651.952,784.222 647.5,787.5C 644.565,787.104 641.898,786.104 639.5,784.5C 638.753,771.524 637.92,758.524 637,745.5C 633.783,723.368 630.95,701.201 628.5,679C 628.418,665.573 631.085,652.74 636.5,640.5 Z M 448.5,394.5 C 446.046,390.211 442.712,386.711 438.5,384C 419.571,374.247 399.738,367.08 379,362.5C 379.496,340.521 382.496,318.855 388,297.5C 390.146,288.073 392.979,278.906 396.5,270C 440.095,265.285 483.095,268.952 525.5,281C 533.986,283.606 542.319,286.606 550.5,290C 551.701,290.903 552.535,292.069 553,293.5C 553.667,309.5 553.667,325.5 553,341.5C 551.207,344.295 549.04,346.795 546.5,349C 520.512,368.637 493.179,386.303 464.5,402C 459.948,403.673 455.281,404.84 450.5,405.5C 429.99,400.965 409.323,397.132 388.5,394C 344.371,388.58 300.871,391.747 258,403.5C 255.755,402.863 253.588,402.03 251.5,401C 238.446,390.946 225.113,381.28 211.5,372C 209.406,370.745 208.406,368.912 208.5,366.5C 217.504,342.325 227.004,318.325 237,294.5C 239.167,292.333 241.333,290.167 243.5,288C 280.134,272.975 317.967,267.142 357,270.5C 357.667,273.5 357.667,276.5 357,279.5C 351.762,307.694 345.762,335.694 339,363.5C 337.421,365.041 335.587,366.208 333.5,367C 311.233,370.531 290.566,378.198 271.5,390C 291.35,386.853 311.35,384.519 331.5,383C 371.094,380.937 410.094,384.77 448.5,394.5 Z M 218.5,288.5 C 222.935,289.767 225.935,292.6 227.5,297C 219.245,319.439 210.412,341.606 201,363.5C 198.372,361.874 196.039,359.874 194,357.5C 193.333,355.167 193.333,352.833 194,350.5C 202.457,329.924 210.623,309.258 218.5,288.5 Z M 706.5,302.5 C 740.244,303.19 764.244,318.69 778.5,349C 758.088,350.251 737.754,352.584 717.5,356C 712.918,339.1 708.585,322.1 704.5,305C 705.056,303.989 705.722,303.156 706.5,302.5 Z M 667.5,308.5 C 670.388,308.22 671.888,309.553 672,312.5C 676.158,327.465 679.825,342.465 683,357.5C 678.414,358.153 673.747,358.487 669,358.5C 655.16,357.895 641.327,357.229 627.5,356.5C 630.541,340.587 638.541,327.753 651.5,318C 656.764,314.542 662.097,311.375 667.5,308.5 Z M 569.5,347.5 C 570.097,347.735 570.43,348.235 570.5,349C 566.878,371.811 563.378,394.645 560,417.5C 557.108,430.512 552.441,442.845 546,454.5C 545.439,455.022 544.772,455.355 544,455.5C 541.844,454.015 539.677,452.515 537.5,451C 532.122,449.085 526.956,447.585 522,446.5C 523.333,442.5 524.667,438.5 526,434.5C 522.532,433.197 519.032,433.197 515.5,434.5C 514.5,434 513.5,433.5 512.5,433C 512.908,429.054 512.908,425.054 512.5,421C 507.279,419.768 501.946,419.101 496.5,419C 521.06,395.272 545.393,371.439 569.5,347.5 Z M 159.5,351.5 C 168.836,360.671 177.67,370.338 186,380.5C 197.658,395.815 208.824,411.481 219.5,427.5C 209.474,440.205 198.974,452.538 188,464.5C 170.757,430.928 160.923,395.262 158.5,357.5C 158.205,355.265 158.539,353.265 159.5,351.5 Z M 551.5,476.5 C 552.838,478.67 554.672,480.336 557,481.5C 558.373,483.695 558.706,486.029 558,488.5C 548.384,495.115 539.05,502.115 530,509.5C 528.417,514.1 529.917,515.934 534.5,515C 545.372,508.633 556.372,502.466 567.5,496.5C 567.833,496.667 568.167,496.833 568.5,497C 561.939,507.562 554.606,517.562 546.5,527C 559.792,532.075 573.459,536.075 587.5,539C 588.056,539.383 588.389,539.883 588.5,540.5C 588.5,541.833 588.5,543.167 588.5,544.5C 587.5,544.5 586.5,544.5 585.5,544.5C 580.807,544.564 576.141,544.231 571.5,543.5C 568.044,543.818 564.711,544.652 561.5,546C 558.833,548.333 558.833,550.667 561.5,553C 566.036,554.379 570.703,554.879 575.5,554.5C 577.5,555.167 579.5,555.833 581.5,556.5C 573.478,575.141 559.145,584.808 538.5,585.5C 540.326,578.609 540.826,571.609 540,564.5C 537.518,559.182 533.351,556.515 527.5,556.5C 493.111,565.925 459.111,576.258 425.5,587.5C 372.526,600.807 318.859,604.307 264.5,598C 244.908,596.154 225.575,592.82 206.5,588C 201.833,587.333 197.167,587.333 192.5,588C 184.802,590.379 182.302,595.546 185,603.5C 194.114,620.746 206.281,635.413 221.5,647.5C 229.948,655.947 239.281,663.28 249.5,669.5C 273.676,687.248 300.676,698.414 330.5,703C 358.491,705.9 385.158,701.4 410.5,689.5C 417.045,695.169 417.045,701.003 410.5,707C 404.476,707.698 398.476,707.532 392.5,706.5C 389.426,706.45 387.259,707.783 386,710.5C 385.501,714.486 385.334,718.486 385.5,722.5C 347.024,725.238 311.024,717.072 277.5,698C 236.575,675.097 201.409,645.264 172,608.5C 164.366,595.764 159.199,582.097 156.5,567.5C 160.437,567.207 164.27,567.54 168,568.5C 175.407,568.059 178.907,564.059 178.5,556.5C 178.342,550.863 176.509,545.863 173,541.5C 169.434,537.934 165.934,534.434 162.5,531C 162.725,529.379 163.558,528.212 165,527.5C 167.432,528.966 169.932,530.299 172.5,531.5C 176.651,534.803 180.985,537.97 185.5,541C 190.083,541.934 191.583,540.1 190,535.5C 186.631,531.963 183.131,528.629 179.5,525.5C 176.204,521.702 172.704,518.036 169,514.5C 169.4,511.509 170.567,508.676 172.5,506C 178.209,505.754 183.876,506.254 189.5,507.5C 191.383,507.124 192.883,506.124 194,504.5C 194.874,494.129 195.874,483.795 197,473.5C 208.116,453.383 223.616,437.55 243.5,426C 253.277,420.774 263.611,417.274 274.5,415.5C 268.674,438.991 269.174,462.324 276,485.5C 280.103,495.546 285.603,504.713 292.5,513C 293.729,513.781 295.062,514.281 296.5,514.5C 299.338,512.898 302.338,512.398 305.5,513C 307.251,516.42 309.918,518.754 313.5,520C 333.912,524.553 351.912,520.053 367.5,506.5C 369.139,508.806 371.139,510.806 373.5,512.5C 384.482,489.385 397.649,467.719 413,447.5C 421.955,436.208 432.455,426.708 444.5,419C 447.05,417.558 449.716,416.392 452.5,415.5C 459.127,420.486 466.127,424.986 473.5,429C 482.81,430.666 492.143,430.999 501.5,430C 502.989,433.185 504.656,436.351 506.5,439.5C 509.701,440.453 512.701,441.786 515.5,443.5C 516.833,445.167 516.833,446.833 515.5,448.5C 508.649,453.324 503.149,459.324 499,466.5C 498.542,469.096 499.375,471.263 501.5,473C 514.48,474.942 527.314,474.109 540,470.5C 544.415,471.423 548.249,473.423 551.5,476.5 Z M 915.5,584.5 C 914.833,583.5 914.167,582.5 913.5,581.5C 912.143,544.002 907.143,507.002 898.5,470.5C 918.214,471.275 934.047,479.609 946,495.5C 955.605,510.762 956.939,526.762 950,543.5C 941.9,560.094 930.4,573.761 915.5,584.5 Z M 238.5,477.5 C 246.856,477.116 253.69,480.116 259,486.5C 267.822,501.273 271.822,517.273 271,534.5C 259.16,549.419 244.66,552.919 227.5,545C 218.413,536.766 213.746,526.433 213.5,514C 215.331,500.667 221.331,489.667 231.5,481C 233.925,479.787 236.259,478.621 238.5,477.5 Z M 447.5,470.5 C 463.571,471.288 475.738,478.621 484,492.5C 486.982,496.797 489.149,501.463 490.5,506.5C 483.628,527.53 469.128,539.196 447,541.5C 429.051,540.391 417.884,531.058 413.5,513.5C 417.027,499.273 424.027,487.107 434.5,477C 438.647,474.26 442.98,472.093 447.5,470.5 Z M 523.5,564.5 C 533.266,566.281 535.1,571.281 529,579.5C 518.888,591.054 507.222,600.721 494,608.5C 492.534,598.173 491.534,587.84 491,577.5C 501.083,571.033 511.917,566.699 523.5,564.5 Z M 441.5,654.5 C 440.206,655.29 439.039,656.29 438,657.5C 437.667,643.833 437.333,630.167 437,616.5C 436.155,609.761 434.988,603.095 433.5,596.5C 433.36,594.876 434.027,593.71 435.5,593C 450.172,588.832 464.839,584.665 479.5,580.5C 480.251,581.376 480.751,582.376 481,583.5C 482.126,592.672 483.292,601.839 484.5,611C 484.167,612.167 483.833,613.333 483.5,614.5C 467.207,625.46 453.207,638.793 441.5,654.5 Z M 195.5,594.5 C 200.655,594.965 205.655,596.131 210.5,598C 211.701,598.903 212.535,600.069 213,601.5C 213.832,610.851 213.665,620.184 212.5,629.5C 202.672,621.676 195.672,611.842 191.5,600C 192.007,597.455 193.341,595.621 195.5,594.5 Z M 416.5,597.5 C 423.026,596.211 425.86,598.877 425,605.5C 427.287,624.776 427.953,644.11 427,663.5C 424.886,667.948 421.719,671.448 417.5,674C 386.691,694.07 353.358,699.736 317.5,691C 299.825,686.409 283.325,679.243 268,669.5C 264.938,650.138 264.938,630.805 268,611.5C 269.085,610.707 270.252,610.04 271.5,609.5C 306.902,613.433 342.236,612.599 377.5,607C 390.888,604.894 403.888,601.728 416.5,597.5 Z M 253.5,663.5 C 244.505,656.84 235.505,650.174 226.5,643.5C 224.73,641.887 223.564,639.887 223,637.5C 222.554,625.803 222.221,614.136 222,602.5C 223.062,601.903 224.228,601.57 225.5,601.5C 235.866,603.508 246.2,605.675 256.5,608C 257,608.5 257.5,609 258,609.5C 258.667,628.5 258.667,647.5 258,666.5C 256.385,665.614 254.885,664.614 253.5,663.5 Z M 807.5,630.5 C 809.255,632.761 810.422,635.428 811,638.5C 812.884,647.557 812.551,656.557 810,665.5C 807.663,672.511 805.33,679.511 803,686.5C 802.667,699.167 802.333,711.833 802,724.5C 801.616,728.653 800.616,732.653 799,736.5C 792.936,739.057 787.436,742.39 782.5,746.5C 780.056,745.778 777.722,744.778 775.5,743.5C 771.694,745.747 767.694,746.081 763.5,744.5C 760.812,744.481 758.312,745.148 756,746.5C 752.132,746.125 749.632,744.125 748.5,740.5C 759.217,718.593 763.217,695.593 760.5,671.5C 781.47,663.86 797.137,650.193 807.5,630.5 Z M 615.5,748.5 C 615.44,747.957 615.107,747.624 614.5,747.5C 613.175,760.994 613.175,774.327 614.5,787.5C 615.004,803.485 609.671,817.152 598.5,828.5C 596.817,827.408 594.984,826.741 593,826.5C 589.024,828.569 584.858,830.235 580.5,831.5C 577.562,830.397 574.729,829.064 572,827.5C 568.877,828.596 565.711,829.596 562.5,830.5C 561.558,830.392 560.725,830.059 560,829.5C 560.421,812.421 554.754,797.754 543,785.5C 539.167,781.667 535.333,777.833 531.5,774C 559.578,766.911 583.412,752.744 603,731.5C 609.333,723.833 615.667,716.167 622,708.5C 628.039,732.474 630.705,756.807 630,781.5C 628,784.167 626,784.167 624,781.5C 624.568,769.53 621.735,758.53 615.5,748.5 Z M 906.5,712.5 C 907.434,713.568 907.768,714.901 907.5,716.5C 907.421,738.979 903.254,760.646 895,781.5C 891.14,790.076 885.307,796.909 877.5,802C 874.243,803.043 870.91,803.543 867.5,803.5C 865.343,802.593 863.01,801.927 860.5,801.5C 855.671,800.724 851.171,799.057 847,796.5C 839.112,780.671 833.946,764.004 831.5,746.5C 852.36,749.786 871.026,744.953 887.5,732C 894.735,726.267 901.068,719.767 906.5,712.5 Z"/></g>
<g><path style="opacity:1" fill="#343434" d="M 249.5,223.5 C 249.649,224.552 249.483,225.552 249,226.5C 247.5,227.333 246.333,228.5 245.5,230C 244.552,230.483 243.552,230.649 242.5,230.5C 244.5,227.833 246.833,225.5 249.5,223.5 Z"/></g>
<g><path style="opacity:1" fill="#070707" d="M 723.5,249.5 C 739.126,249.087 754.459,250.92 769.5,255C 773.547,259.327 775.714,264.493 776,270.5C 781.601,299.438 786.767,328.438 791.5,357.5C 765.837,357.133 740.504,359.8 715.5,365.5C 714.228,365.43 713.062,365.097 712,364.5C 701.864,329.926 692.031,295.259 682.5,260.5C 682.148,258.076 683.148,256.576 685.5,256C 698.145,252.84 710.812,250.674 723.5,249.5 Z M 706.5,302.5 C 705.722,303.156 705.056,303.989 704.5,305C 708.585,322.1 712.918,339.1 717.5,356C 737.754,352.584 758.088,350.251 778.5,349C 764.244,318.69 740.244,303.19 706.5,302.5 Z"/></g>
<g><path style="opacity:1" fill="#070707" d="M 803.5,333.5 C 803.932,330.123 803.265,327.123 801.5,324.5C 797.631,301.856 791.964,279.689 784.5,258C 785,257.5 785.5,257 786,256.5C 800.944,260.42 812.944,268.753 822,281.5C 838.034,307.426 848.867,335.426 854.5,365.5C 846.228,363.516 837.895,361.683 829.5,360C 821.771,359.008 814.105,358.508 806.5,358.5C 805.407,350.184 804.407,341.85 803.5,333.5 Z"/></g>
<g><path style="opacity:1" fill="#060606" d="M 658.5,261.5 C 662.287,260.814 665.454,261.814 668,264.5C 677.614,286.617 684.28,309.617 688,333.5C 690.052,345.146 691.886,356.813 693.5,368.5C 661.668,377.749 630.668,389.249 600.5,403C 598.559,403.743 596.726,403.576 595,402.5C 592.569,367.5 590.569,332.5 589,297.5C 591.963,294.089 595.463,291.256 599.5,289C 618.213,277.641 637.88,268.475 658.5,261.5 Z M 667.5,308.5 C 662.097,311.375 656.764,314.542 651.5,318C 638.541,327.753 630.541,340.587 627.5,356.5C 641.327,357.229 655.16,357.895 669,358.5C 673.747,358.487 678.414,358.153 683,357.5C 679.825,342.465 676.158,327.465 672,312.5C 671.888,309.553 670.388,308.22 667.5,308.5 Z"/></g>
<g><path style="opacity:1" fill="#101010" d="M 335.5,277.5 C 338.978,277.184 342.312,277.684 345.5,279C 346.591,281.064 346.758,283.231 346,285.5C 341.254,307.896 336.254,330.229 331,352.5C 328.921,357.579 325.254,360.912 320,362.5C 318.379,362.275 317.212,361.442 316.5,360C 320.921,341.231 325.087,322.398 329,303.5C 330.004,300.007 329.504,296.841 327.5,294C 320.149,291.096 312.482,289.93 304.5,290.5C 287.401,291.177 270.401,292.843 253.5,295.5C 251.67,295.224 250.003,294.557 248.5,293.5C 260.618,287.961 273.285,284.128 286.5,282C 302.923,279.83 319.257,278.33 335.5,277.5 Z"/></g>
<g><path style="opacity:1" fill="#0a0a0a" d="M 405.5,277.5 C 449.254,275.636 491.921,281.469 533.5,295C 536.477,296.318 539.31,297.818 542,299.5C 542.667,310.167 542.667,320.833 542,331.5C 532.327,322.575 521.16,316.075 508.5,312C 503.615,310.282 500.449,311.782 499,316.5C 494.794,337.194 490.461,357.861 486,378.5C 485.535,379.931 484.701,381.097 483.5,382C 478.508,384.161 473.841,386.828 469.5,390C 464.278,392.489 460.945,390.822 459.5,385C 461.651,381.51 463.818,378.01 466,374.5C 467.429,352.686 471.429,331.353 478,310.5C 479.106,304.585 476.606,301.085 470.5,300C 452.662,296.166 434.828,292.332 417,288.5C 412.942,289.022 409.942,291.022 408,294.5C 401.93,315.113 397.93,336.113 396,357.5C 390.236,359.54 387.403,357.54 387.5,351.5C 389.712,327.938 394.546,304.938 402,282.5C 402.997,280.677 404.164,279.01 405.5,277.5 Z"/></g>
<g><path style="opacity:1" fill="#6f6f6f" d="M 141.5,314.5 C 140.508,321.648 140.175,328.981 140.5,336.5C 139.18,328.99 139.18,321.323 140.5,313.5C 141.107,313.624 141.44,313.957 141.5,314.5 Z"/></g>
<g><path style="opacity:1" fill="#4a4a4a" d="M 801.5,324.5 C 803.265,327.123 803.932,330.123 803.5,333.5C 802.525,330.689 801.858,327.689 801.5,324.5 Z"/></g>
<g><path style="opacity:1" fill="#626262" d="M 159.5,351.5 C 158.539,353.265 158.205,355.265 158.5,357.5C 157.203,355.307 157.203,352.973 158.5,350.5C 159.107,350.624 159.44,350.957 159.5,351.5 Z"/></g>
<g><path style="opacity:1" fill="#707070" d="M 230.5,456.5 C 232.156,458.06 234.156,459.06 236.5,459.5C 234.167,459.5 231.833,459.5 229.5,459.5C 229.263,458.209 229.596,457.209 230.5,456.5 Z"/></g>
<g><path style="opacity:1" fill="#171717" d="M 236.5,459.5 C 234.156,459.06 232.156,458.06 230.5,456.5C 235.996,450.486 242.662,448.986 250.5,452C 256.297,455.784 259.297,460.951 259.5,467.5C 252.372,463.235 244.705,460.569 236.5,459.5 Z"/></g>
<g><path style="opacity:1" fill="#131313" d="M 424.5,451.5 C 428.555,451.176 432.555,451.509 436.5,452.5C 425.407,462.09 415.573,472.756 407,484.5C 403.996,468.495 409.829,457.495 424.5,451.5 Z"/></g>
<g><path style="opacity:1" fill="#1d1d1d" d="M 132.5,484.5 C 131.542,484.953 130.708,485.619 130,486.5C 128.375,485.588 127.541,486.255 127.5,488.5C 123.519,485.175 121.186,481.175 120.5,476.5C 124.91,478.694 128.91,481.361 132.5,484.5 Z"/></g>
<g><path style="opacity:1" fill="#131313" d="M 234.5,471.5 C 249.76,469.073 261.26,474.406 269,487.5C 276.421,499.848 279.421,513.182 278,527.5C 271.198,549.999 256.032,559.499 232.5,556C 218.362,551.273 210.195,541.44 208,526.5C 204.132,507.129 209.299,490.629 223.5,477C 226.99,474.588 230.657,472.755 234.5,471.5 Z M 238.5,477.5 C 236.259,478.621 233.925,479.787 231.5,481C 221.331,489.667 215.331,500.667 213.5,514C 213.746,526.433 218.413,536.766 227.5,545C 244.66,552.919 259.16,549.419 271,534.5C 271.822,517.273 267.822,501.273 259,486.5C 253.69,480.116 246.856,477.116 238.5,477.5 Z"/></g>
<g><path style="opacity:1" fill="#131313" d="M 445.5,462.5 C 458.581,460.972 469.914,464.638 479.5,473.5C 506.41,503.453 502.077,527.953 466.5,547C 444.265,554.586 426.099,549.086 412,530.5C 406.878,520.127 406.212,509.46 410,498.5C 414.477,486.034 421.977,475.867 432.5,468C 436.741,465.651 441.075,463.818 445.5,462.5 Z M 447.5,470.5 C 442.98,472.093 438.647,474.26 434.5,477C 424.027,487.107 417.027,499.273 413.5,513.5C 417.884,531.058 429.051,540.391 447,541.5C 469.128,539.196 483.628,527.53 490.5,506.5C 489.149,501.463 486.982,496.797 484,492.5C 475.738,478.621 463.571,471.288 447.5,470.5 Z"/></g>
<g><path style="opacity:1" fill="white" d="M 438.5,496.5 C 447.245,508.519 448.578,521.353 442.5,535C 437.94,535.806 434.774,533.973 433,529.5C 429.269,522.797 428.603,515.797 431,508.5C 432.933,504.083 435.433,500.083 438.5,496.5 Z"/></g>
<g><path style="opacity:1" fill="white" d="M 235.5,502.5 C 238.595,502.626 240.428,504.293 241,507.5C 244.594,517.128 244.927,526.795 242,536.5C 240.173,542.246 237.173,542.579 233,537.5C 226.414,525.286 227.247,513.619 235.5,502.5 Z"/></g>
<g><path style="opacity:1" fill="#0c0c0c" d="M 325.5,530.5 C 339.632,529.906 352.466,533.572 364,541.5C 365.734,553.494 360.734,557.494 349,553.5C 345.097,553.515 341.264,554.015 337.5,555C 331.682,558.005 326.016,561.171 320.5,564.5C 319.062,564.281 317.729,563.781 316.5,563C 314.5,559.667 311.833,557 308.5,555C 306.5,554.333 304.5,554.333 302.5,555C 297.888,557.776 293.055,558.609 288,557.5C 285.727,552.751 286.561,548.585 290.5,545C 301.122,537.347 312.789,532.514 325.5,530.5 Z"/></g>
<g><path style="opacity:1" fill="#191919" d="M 179.5,525.5 C 183.131,528.629 186.631,531.963 190,535.5C 191.583,540.1 190.083,541.934 185.5,541C 180.985,537.97 176.651,534.803 172.5,531.5C 174.262,531.643 175.929,531.309 177.5,530.5C 178.478,530.977 179.311,531.643 180,532.5C 179.89,530.111 179.723,527.778 179.5,525.5 Z"/></g>
<g><path style="opacity:1" fill="#525252" d="M 588.5,540.5 C 589.451,541.919 589.784,543.585 589.5,545.5C 587.901,545.768 586.568,545.434 585.5,544.5C 586.5,544.5 587.5,544.5 588.5,544.5C 588.5,543.167 588.5,541.833 588.5,540.5 Z"/></g>
<g><path style="opacity:1" fill="#6e6e6e" d="M 575.5,554.5 C 577.924,554.192 580.257,554.526 582.5,555.5C 582.376,556.107 582.043,556.44 581.5,556.5C 579.5,555.833 577.5,555.167 575.5,554.5 Z"/></g>
<g><path style="opacity:1" fill="#0b0b0b" d="M 448.5,658.5 C 448.5,657.5 448.5,656.5 448.5,655.5C 446.097,655.552 443.764,655.219 441.5,654.5C 453.207,638.793 467.207,625.46 483.5,614.5C 483.833,613.333 484.167,612.167 484.5,611C 483.292,601.839 482.126,592.672 481,583.5C 480.751,582.376 480.251,581.376 479.5,580.5C 464.839,584.665 450.172,588.832 435.5,593C 434.027,593.71 433.36,594.876 433.5,596.5C 432.371,594.372 432.204,592.039 433,589.5C 434.049,590.517 435.216,590.684 436.5,590C 434.336,589.086 432.336,587.919 430.5,586.5C 428.929,587.309 427.262,587.643 425.5,587.5C 459.111,576.258 493.111,565.925 527.5,556.5C 533.351,556.515 537.518,559.182 540,564.5C 540.826,571.609 540.326,578.609 538.5,585.5C 559.145,584.808 573.478,575.141 581.5,556.5C 582.043,556.44 582.376,556.107 582.5,555.5C 580.257,554.526 577.924,554.192 575.5,554.5C 570.703,554.879 566.036,554.379 561.5,553C 558.833,550.667 558.833,548.333 561.5,546C 564.711,544.652 568.044,543.818 571.5,543.5C 576.141,544.231 580.807,544.564 585.5,544.5C 586.568,545.434 587.901,545.768 589.5,545.5C 589.784,543.585 589.451,541.919 588.5,540.5C 588.389,539.883 588.056,539.383 587.5,539C 573.459,536.075 559.792,532.075 546.5,527C 554.606,517.562 561.939,507.562 568.5,497C 568.167,496.833 567.833,496.667 567.5,496.5C 556.372,502.466 545.372,508.633 534.5,515C 529.917,515.934 528.417,514.1 530,509.5C 539.05,502.115 548.384,495.115 558,488.5C 558.706,486.029 558.373,483.695 557,481.5C 554.672,480.336 552.838,478.67 551.5,476.5C 554.376,475.021 557.376,473.688 560.5,472.5C 560.154,471.304 559.654,471.304 559,472.5C 558.51,471.207 558.343,469.873 558.5,468.5C 562.51,472.343 566.677,476.01 571,479.5C 580.752,473.372 590.919,467.872 601.5,463C 619.574,456.49 621.574,459.156 607.5,471C 598.924,477.206 590.091,483.039 581,488.5C 580.48,490.289 580.813,491.956 582,493.5C 585.875,498.746 589.375,504.246 592.5,510C 594.833,510.667 597.167,510.667 599.5,510C 621.546,502.191 644.212,497.857 667.5,497C 662.372,501.454 656.705,505.121 650.5,508C 634.514,514.081 618.18,519.081 601.5,523C 600,523.833 598.833,525 598,526.5C 596.375,531.677 596.208,536.844 597.5,542C 612.814,543.07 628.147,543.737 643.5,544C 648.547,544.338 653.547,545.005 658.5,546C 660.421,546.36 662.088,547.194 663.5,548.5C 663.291,549.086 662.957,549.586 662.5,550C 658.877,551.156 655.211,552.156 651.5,553C 632.632,555.97 613.632,557.303 594.5,557C 588.727,564.118 582.893,571.284 577,578.5C 575.632,579.993 575.465,581.493 576.5,583C 601.073,591.664 611.739,608.83 608.5,634.5C 585.134,630.994 561.801,627.161 538.5,623C 532.317,622.677 526.15,622.177 520,621.5C 489.423,621.368 465.59,633.701 448.5,658.5 Z M 523.5,564.5 C 511.917,566.699 501.083,571.033 491,577.5C 491.534,587.84 492.534,598.173 494,608.5C 507.222,600.721 518.888,591.054 529,579.5C 535.1,571.281 533.266,566.281 523.5,564.5 Z"/></g>
<g><path style="opacity:1" fill="#7c7c7c" d="M 913.5,581.5 C 914.167,582.5 914.833,583.5 915.5,584.5C 915.44,585.043 915.107,585.376 914.5,585.5C 913.571,584.311 913.238,582.978 913.5,581.5 Z"/></g>
<g><path style="opacity:1" fill="#2a2a2a" d="M 100.5,607.5 C 100.81,609.144 101.81,610.144 103.5,610.5C 99.6872,611.951 95.6872,612.784 91.5,613C 94.1943,610.653 97.1943,608.82 100.5,607.5 Z"/></g>
<g><path style="opacity:1" fill="#1a1a1a" d="M 636.5,640.5 C 636.21,637.205 634.543,635.205 631.5,634.5C 634.123,630.098 637.123,625.931 640.5,622C 644.667,620.833 646.167,622.333 645,626.5C 641.877,631.097 639.043,635.763 636.5,640.5 Z"/></g>
<g><path style="opacity:1" fill="#131313" d="M 336.5,620.5 C 339.608,642.182 342.608,664.015 345.5,686C 345.167,686.5 344.833,687 344.5,687.5C 340.685,683.888 337.852,679.554 336,674.5C 331.895,660.778 330.562,646.778 332,632.5C 332.595,628.088 334.095,624.088 336.5,620.5 Z"/></g>
<g><path style="opacity:1" fill="#030303" d="M 676.5,640.5 C 696.427,638.48 714.427,643.314 730.5,655C 741.289,664.072 745.789,675.572 744,689.5C 739.223,700.933 730.723,708.1 718.5,711C 694.681,717.029 672.348,713.696 651.5,701C 640.336,691.501 636.836,679.668 641,665.5C 645.942,655.262 653.776,648.095 664.5,644C 668.623,642.808 672.623,641.641 676.5,640.5 Z"/></g>
<g><path style="opacity:1" fill="#141414" d="M 226.5,643.5 C 235.505,650.174 244.505,656.84 253.5,663.5C 252.234,664.09 250.901,664.59 249.5,665C 249.966,666.299 249.966,667.799 249.5,669.5C 239.281,663.28 229.948,655.947 221.5,647.5C 223.314,647.228 225.314,647.061 227.5,647C 226.5,646.667 225.5,646.333 224.5,646C 225.381,645.292 226.047,644.458 226.5,643.5 Z"/></g>
<g><path style="opacity:1" fill="#515151" d="M 229.5,683.5 C 215.791,682.852 202.458,683.519 189.5,685.5C 188.596,684.791 188.263,683.791 188.5,682.5C 202.344,682.171 216.01,682.504 229.5,683.5 Z"/></g>
<g><path style="opacity:1" fill="#0a0a0a" d="M 196.5,699.5 C 200.906,703.417 204.406,708.083 207,713.5C 207.203,717.421 207.703,721.255 208.5,725C 238.014,716.054 263.848,722.22 286,743.5C 286.628,750.08 284.128,755.247 278.5,759C 273.935,761.946 268.935,763.779 263.5,764.5C 246.184,761.026 228.85,760.859 211.5,764C 207.424,764.476 203.59,765.642 200,767.5C 198.966,779.564 200.633,791.23 205,802.5C 206.779,807.408 209.946,811.075 214.5,813.5C 218.775,812.564 221.442,814.397 222.5,819C 227.807,818.641 233.141,818.641 238.5,819C 246.164,825.393 251.83,823.893 255.5,814.5C 258.432,813.183 261.432,812.016 264.5,811C 269.104,806.397 272.938,801.23 276,795.5C 281.548,783.742 287.048,772.076 292.5,760.5C 296.305,760.898 299.305,762.565 301.5,765.5C 299.5,767.671 297.666,770.004 296,772.5C 293.803,790.117 286.803,805.45 275,818.5C 274.071,824.272 272.738,829.939 271,835.5C 267.801,838.129 264.801,837.796 262,834.5C 261.195,830.693 258.861,828.693 255,828.5C 251.552,829.538 248.052,830.371 244.5,831C 243.185,835.407 242.185,839.907 241.5,844.5C 238.984,844.245 236.65,843.411 234.5,842C 230.928,838.185 227.595,834.185 224.5,830C 220.671,829.242 217.338,830.242 214.5,833C 213.167,833.667 211.833,833.667 210.5,833C 208.756,829.008 207.256,824.842 206,820.5C 193.672,806.065 188.172,789.231 189.5,770C 190.227,752.686 192.227,735.52 195.5,718.5C 194.811,713.82 192.811,709.82 189.5,706.5C 189.783,705.711 190.283,705.044 191,704.5C 195.992,706.496 197.159,704.996 194.5,700C 195.094,699.536 195.761,699.369 196.5,699.5 Z"/></g>
<g><path style="opacity:1" fill="#8a8a8a" d="M 906.5,712.5 C 906.56,711.957 906.893,711.624 907.5,711.5C 908.788,713.299 908.788,714.965 907.5,716.5C 907.768,714.901 907.434,713.568 906.5,712.5 Z"/></g>
<g><path style="opacity:1" fill="#161616" d="M 430.5,715.5 C 435.677,714.703 440.177,716.036 444,719.5C 445.812,725.021 443.812,727.688 438,727.5C 429.672,726.731 427.172,722.731 430.5,715.5 Z"/></g>
<g><path style="opacity:1" fill="#191919" d="M 461.5,715.5 C 466.782,715.972 470.449,718.639 472.5,723.5C 471.556,726.725 469.389,728.392 466,728.5C 459.182,728.35 455.849,725.017 456,718.5C 457.719,717.131 459.552,716.131 461.5,715.5 Z"/></g>
<g><path style="opacity:1" fill="#181818" d="M 409.5,727.5 C 413.686,727.753 417.186,729.419 420,732.5C 420.896,735.025 420.396,737.192 418.5,739C 413.243,740.426 408.743,739.259 405,735.5C 403.797,731.222 405.297,728.556 409.5,727.5 Z"/></g>
<g><path style="opacity:1" fill="#717171" d="M 615.5,748.5 C 614.505,761.323 614.171,774.323 614.5,787.5C 613.175,774.327 613.175,760.994 614.5,747.5C 615.107,747.624 615.44,747.957 615.5,748.5 Z"/></g>
<g><path style="opacity:1" fill="#464646" d="M 860.5,801.5 C 863.01,801.927 865.343,802.593 867.5,803.5C 865.473,803.662 863.473,803.495 861.5,803C 860.944,802.617 860.611,802.117 860.5,801.5 Z"/></g>
</svg>
